<mxfile host="app.diagrams.net" modified="2020-09-06T13:14:30.442Z" agent="5.0 (Windows NT 10.0; Win64; x64) AppleWebKit/537.36 (KHTML, like Gecko) Chrome/81.0.4044.92 Safari/537.36" etag="aD7G8MgDGBtGioLZeAmP" version="13.6.6" type="github">
  <diagram id="j6B-2KxSt54PnDbFt00d" name="第 1 页">
    <mxGraphModel dx="868" dy="411" grid="1" gridSize="10" guides="1" tooltips="1" connect="1" arrows="1" fold="1" page="1" pageScale="1" pageWidth="827" pageHeight="1169" math="0" shadow="0">
      <root>
        <mxCell id="0" />
        <mxCell id="1" parent="0" />
        <mxCell id="mZlkFPKZ1lfKUvn6Hq1E-1" value="SQL解析" style="rounded=1;whiteSpace=wrap;html=1;sketch=1;fillColor=#dae8fc;strokeColor=#6c8ebf;" vertex="1" parent="1">
          <mxGeometry x="200" y="230" width="120" height="60" as="geometry" />
        </mxCell>
        <mxCell id="mZlkFPKZ1lfKUvn6Hq1E-2" value="SQL路由" style="rounded=1;whiteSpace=wrap;html=1;sketch=1;fillColor=#dae8fc;strokeColor=#6c8ebf;" vertex="1" parent="1">
          <mxGeometry x="200" y="350" width="120" height="60" as="geometry" />
        </mxCell>
        <mxCell id="mZlkFPKZ1lfKUvn6Hq1E-3" value="SQL改写" style="rounded=1;whiteSpace=wrap;html=1;sketch=1;fillColor=#dae8fc;strokeColor=#6c8ebf;" vertex="1" parent="1">
          <mxGeometry x="200" y="470" width="120" height="60" as="geometry" />
        </mxCell>
        <mxCell id="mZlkFPKZ1lfKUvn6Hq1E-4" value="SQL执行" style="rounded=0;whiteSpace=wrap;html=1;sketch=1;fillColor=#fff2cc;strokeColor=#d6b656;" vertex="1" parent="1">
          <mxGeometry x="190" y="590" width="310" height="60" as="geometry" />
        </mxCell>
        <mxCell id="mZlkFPKZ1lfKUvn6Hq1E-5" value="结果并归" style="rounded=1;whiteSpace=wrap;html=1;sketch=1;fillColor=#dae8fc;strokeColor=#6c8ebf;" vertex="1" parent="1">
          <mxGeometry x="400" y="230" width="100" height="300" as="geometry" />
        </mxCell>
        <mxCell id="mZlkFPKZ1lfKUvn6Hq1E-6" value="" style="shape=flexArrow;endArrow=classic;html=1;exitX=0.5;exitY=1;exitDx=0;exitDy=0;entryX=0.5;entryY=0;entryDx=0;entryDy=0;sketch=1;" edge="1" parent="1" source="mZlkFPKZ1lfKUvn6Hq1E-1" target="mZlkFPKZ1lfKUvn6Hq1E-2">
          <mxGeometry width="50" height="50" relative="1" as="geometry">
            <mxPoint x="250" y="340" as="sourcePoint" />
            <mxPoint x="300" y="290" as="targetPoint" />
          </mxGeometry>
        </mxCell>
        <mxCell id="mZlkFPKZ1lfKUvn6Hq1E-7" value="" style="shape=flexArrow;endArrow=classic;html=1;exitX=0.5;exitY=1;exitDx=0;exitDy=0;sketch=1;entryX=0.5;entryY=0;entryDx=0;entryDy=0;" edge="1" parent="1" target="mZlkFPKZ1lfKUvn6Hq1E-3">
          <mxGeometry width="50" height="50" relative="1" as="geometry">
            <mxPoint x="259.5" y="410" as="sourcePoint" />
            <mxPoint x="260" y="460" as="targetPoint" />
          </mxGeometry>
        </mxCell>
        <mxCell id="mZlkFPKZ1lfKUvn6Hq1E-8" value="" style="shape=flexArrow;endArrow=classic;html=1;exitX=0.5;exitY=1;exitDx=0;exitDy=0;entryX=0.5;entryY=0;entryDx=0;entryDy=0;sketch=1;" edge="1" parent="1">
          <mxGeometry width="50" height="50" relative="1" as="geometry">
            <mxPoint x="259.5" y="530" as="sourcePoint" />
            <mxPoint x="259.5" y="590" as="targetPoint" />
          </mxGeometry>
        </mxCell>
        <mxCell id="mZlkFPKZ1lfKUvn6Hq1E-9" value="" style="shape=flexArrow;endArrow=classic;html=1;" edge="1" parent="1" target="mZlkFPKZ1lfKUvn6Hq1E-5">
          <mxGeometry width="50" height="50" relative="1" as="geometry">
            <mxPoint x="450" y="590" as="sourcePoint" />
            <mxPoint x="500" y="540" as="targetPoint" />
          </mxGeometry>
        </mxCell>
      </root>
    </mxGraphModel>
  </diagram>
</mxfile>
